<svg xmlns="http://www.w3.org/2000/svg" viewBox="0 0 1200 800" role="img" aria-labelledby="title desc">
  <title id="title">Archive resource thumbnail</title>
  <desc id="desc">Abstract archive panels with records and catalog blocks.</desc>
  <defs>
    <linearGradient id="bg" x1="0" y1="0" x2="1" y2="1">
      <stop offset="0%" stop-color="#14233c"/>
      <stop offset="100%" stop-color="#0b1425"/>
    </linearGradient>
  </defs>
  <rect width="1200" height="800" fill="url(#bg)"/>
  <rect x="90" y="90" width="1020" height="620" rx="42" fill="#101a2f" stroke="#35527a" stroke-width="6"/>
  <rect x="140" y="140" width="440" height="510" rx="26" fill="#162540"/>
  <rect x="620" y="140" width="440" height="160" rx="26" fill="#162540"/>
  <rect x="620" y="330" width="440" height="140" rx="26" fill="#162540"/>
  <rect x="620" y="500" width="440" height="150" rx="26" fill="#162540"/>
  <g fill="#243b5d">
    <rect x="180" y="190" width="360" height="24" rx="12"/>
    <rect x="180" y="245" width="280" height="18" rx="9"/>
    <rect x="180" y="285" width="320" height="18" rx="9"/>
    <rect x="180" y="325" width="240" height="18" rx="9"/>
    <rect x="180" y="390" width="320" height="170" rx="18"/>
    <rect x="670" y="190" width="250" height="20" rx="10"/>
    <rect x="670" y="230" width="330" height="16" rx="8"/>
    <rect x="670" y="380" width="290" height="18" rx="9"/>
    <rect x="670" y="420" width="250" height="16" rx="8"/>
    <rect x="670" y="550" width="210" height="20" rx="10"/>
    <rect x="670" y="595" width="300" height="16" rx="8"/>
  </g>
  <circle cx="450" cy="475" r="55" fill="#ffb347"/>
  <circle cx="450" cy="475" r="30" fill="#ffdd8a"/>
</svg>
